<svg width="16" height="16" viewBox="0 0 16 16" fill="none" xmlns="http://www.w3.org/2000/svg">
<path d="M9.53317 8.11987C9.51765 8.10439 9.50534 8.086 9.49693 8.06575C9.48853 8.0455 9.48421 8.02379 9.48421 8.00187C9.48421 7.97995 9.48853 7.95824 9.49693 7.93799C9.50534 7.91775 9.51765 7.89935 9.53317 7.88387L15.7085 1.7092C15.896 1.52143 16.0012 1.26686 16.0011 1.0015C16.0009 0.736133 15.8953 0.481712 15.7075 0.294204C15.5197 0.106696 15.2652 0.00146067 14.9998 0.0016482C14.7344 0.00183573 14.48 0.107431 14.2925 0.295204L8.11784 6.4672C8.10236 6.48273 8.08397 6.49504 8.06372 6.50344C8.04347 6.51184 8.02176 6.51617 7.99984 6.51617C7.97792 6.51617 7.95621 6.51184 7.93596 6.50344C7.91571 6.49504 7.89732 6.48273 7.88184 6.4672L1.70717 0.295204C1.61433 0.202316 1.5041 0.128624 1.38277 0.0783367C1.26145 0.0280491 1.13141 0.00215054 1.00008 0.00211959C0.734837 0.00205708 0.480437 0.107363 0.292841 0.294871C0.105244 0.482379 -0.000181601 0.73673 -0.000244113 1.00197C-0.000306625 1.26721 0.104999 1.52161 0.292507 1.7092L6.46651 7.88387C6.48203 7.89935 6.49434 7.91775 6.50274 7.93799C6.51115 7.95824 6.51547 7.97995 6.51547 8.00187C6.51547 8.02379 6.51115 8.0455 6.50274 8.06575C6.49434 8.086 6.48203 8.10439 6.46651 8.11987L0.292507 14.2952C0.199663 14.3881 0.126023 14.4984 0.0757926 14.6197C0.0255622 14.7411 -0.000275066 14.8711 -0.000244113 15.0024C-0.000181601 15.2677 0.105244 15.522 0.292841 15.7095C0.385729 15.8024 0.495995 15.876 0.617342 15.9263C0.73869 15.9765 0.868743 16.0023 1.00008 16.0023C1.26532 16.0022 1.51967 15.8968 1.70717 15.7092L7.88184 9.53387C7.89732 9.51835 7.91571 9.50604 7.93596 9.49763C7.95621 9.48923 7.97792 9.48491 7.99984 9.48491C8.02176 9.48491 8.04347 9.48923 8.06372 9.49763C8.08397 9.50604 8.10236 9.51835 8.11784 9.53387L14.2925 15.7092C14.48 15.8968 14.7344 16.0022 14.9996 16.0023C15.2648 16.0024 15.5192 15.897 15.7068 15.7095C15.8944 15.522 15.9999 15.2677 15.9999 15.0024C16 14.7372 15.8947 14.4828 15.7072 14.2952L9.53317 8.11987Z" fill="white"/>
</svg>
