<svg width="60" height="29" viewBox="0 0 60 29" fill="none" xmlns="http://www.w3.org/2000/svg">
<path d="M53.826 8.83925C47.3265 8.65762 45.8121 6.96242 45.4335 5.99374V5.9332V5.87265C45.4335 5.81211 45.4335 5.75157 45.3704 5.63048C45.3704 5.56994 45.3704 5.50939 45.3704 5.44885C45.8752 4.96451 46.1276 4.29854 46.0014 3.63257C45.8121 2.66388 44.9287 1.93737 43.919 1.87683C43.288 1.87683 42.657 2.05846 42.2153 2.48226C42.1522 2.5428 42.0891 2.60334 42.026 2.66388V2.5428C42.026 2.48226 42.026 2.42171 42.026 2.36117C42.026 1.02923 40.8901 0 39.565 0C38.3029 0 37.1671 1.08977 37.104 2.42171C36.4099 2.5428 35.842 2.72443 35.2109 3.02714C33.4441 2.119 31.0462 1.33194 28.3328 0.787058C25.8087 0.302716 23.0953 0 20.6975 0C16.722 0 12.5573 0.908142 8.07706 2.84551C7.06743 3.26931 5.93159 3.8142 4.92196 4.54071C4.92196 4.54071 4.92196 4.54071 4.85886 4.54071L3.47061 3.08768C3.092 2.72443 2.58718 2.5428 2.08237 2.5428C1.57755 2.5428 1.07273 2.72443 0.63102 3.08768C0.252408 3.45094 0.063102 3.93528 0 4.41963C0 4.90397 0.189305 5.38831 0.567917 5.75157L2.27167 7.56785C1.82996 8.11273 1.38824 8.77871 1.26204 9.08142V9.14196C0.63102 10.5344 0.378611 11.9875 0.378611 13.5616C0.378611 15.7411 1.07273 18.0418 2.27167 19.9791C3.59682 22.1587 4.98506 23.4906 6.49951 24.1566L6.56261 27.6681C6.56261 28.0919 6.87812 28.4551 7.25673 28.5762C7.88775 28.7578 9.3391 29 11.4846 29C13.63 29 15.0814 28.7578 15.7124 28.5762C16.1541 28.4551 16.4065 28.0313 16.4065 27.6075V25.0042C16.4065 24.9436 16.4696 24.8831 16.4696 24.8225C16.5327 24.762 16.5958 24.762 16.6589 24.762C17.5424 24.9436 19.2461 25.2463 20.2558 25.2463C23.0953 25.2463 27.8911 24.8225 30.4783 24.1566C30.6045 24.096 30.7307 24.1566 30.8569 24.2171C30.9831 24.2777 31.0462 24.3987 31.0462 24.5198V27.6075C31.0462 28.0313 31.3617 28.3946 31.7403 28.5762C32.3713 28.7578 33.8227 29 35.9051 29C37.9874 29 39.4388 28.8184 40.0698 28.5762C40.5115 28.4551 40.7639 28.0313 40.7639 27.6075V23.6722C40.7639 23.4906 40.8901 23.3695 41.0163 23.309C41.5842 23.0668 42.026 22.643 42.3415 22.1587C43.8559 22.4008 45.5597 22.7641 47.3265 23.309C61.4614 27.6075 63.9855 9.14196 53.826 8.83925Z" fill="#E2203E"/>
</svg>
